# xmcd CD database file
#
# Track frame offsets:
#	150
#	29960
#	70077
#	95332
#	117527
#	139390
#	150597
#	170745
#
# Disc length: 2537 seconds
#
# Revision: 1
# Processed by: cddbd v1.5.1PL0 Copyright (c) Steve Scherf et al.
# Submitted via: CDex 1.51
#
DISCID=7509e708
DTITLE=THE THREE SOUNDS - Moods
DYEAR=1960
DGENRE=Jazz
TTITLE0=Love For Sale
TTITLE1=Things Ain't What They Used To Be
TTITLE2=On Green Dolphin Street
TTITLE3=Loose Walk
TTITLE4=Li'l Darlin'
TTITLE5=I'm Beginning To See The Light
TTITLE6=Tammy's Breeze
TTITLE7=Sandu
EXTD=YEAR: 1960
EXTT0=
EXTT1=
EXTT2=
EXTT3=
EXTT4=
EXTT5=
EXTT6=
EXTT7=
PLAYORDER=
